{
	"asset":{
		"generator":"Khronos glTF Blender I/O v4.5.47",
		"version":"2.0"
	},
	"scene":0,
	"scenes":[
		{
			"name":"Scene",
			"nodes":[
				0,
				1,
				2,
				3
			]
		}
	],
	"nodes":[
		{
			"mesh":0,
			"name":"revolver_base",
			"rotation":[
				0.5,
				-0.5,
				-0.5,
				0.5000000596046448
			],
			"scale":[
				0.006971982307732105,
				0.006971982307732105,
				0.006971982307732105
			]
		},
		{
			"mesh":1,
			"name":"revolver_chamber",
			"translation":[
				0.00037682257243432105,
				0.0014090026961639524,
				-0.012198497541248798
			]
		},
		{
			"mesh":2,
			"name":"revolver_base_back",
			"translation":[
				-0.0010988436406478286,
				-0.07389669120311737,
				0.349991112947464
			]
		},
		{
			"mesh":3,
			"name":"revolver_base_trigger",
			"translation":[
				0.0005212429678067565,
				-0.19749557971954346,
				0.1763971596956253
			]
		}
	],
	"meshes":[
		{
			"name":"rev_anim.obj",
			"primitives":[
				{
					"attributes":{
						"POSITION":0,
						"NORMAL":1,
						"TEXCOORD_0":2
					},
					"indices":3
				}
			]
		},
		{
			"name":"rev_anim.obj.001",
			"primitives":[
				{
					"attributes":{
						"POSITION":4,
						"NORMAL":5,
						"TEXCOORD_0":6
					},
					"indices":7
				}
			]
		},
		{
			"name":"rev_anim.obj.002",
			"primitives":[
				{
					"attributes":{
						"POSITION":8,
						"NORMAL":9,
						"TEXCOORD_0":10
					},
					"indices":11
				}
			]
		},
		{
			"name":"rev_anim.obj.003",
			"primitives":[
				{
					"attributes":{
						"POSITION":12,
						"NORMAL":13,
						"TEXCOORD_0":14
					},
					"indices":15
				}
			]
		}
	],
	"accessors":[
		{
			"bufferView":0,
			"componentType":5126,
			"count":8381,
			"max":[
				107.59790802001953,
				112.19851684570312,
				17.746551513671875
			],
			"min":[
				-35.83620071411133,
				-136.21099853515625,
				-17.746549606323242
			],
			"type":"VEC3"
		},
		{
			"bufferView":1,
			"componentType":5126,
			"count":8381,
			"type":"VEC3"
		},
		{
			"bufferView":2,
			"componentType":5126,
			"count":8381,
			"type":"VEC2"
		},
		{
			"bufferView":3,
			"componentType":5123,
			"count":8805,
			"type":"SCALAR"
		},
		{
			"bufferView":4,
			"componentType":5126,
			"count":1616,
			"max":[
				0.13309746980667114,
				0.13305333256721497,
				0.13420839607715607
			],
			"min":[
				-0.13309741020202637,
				-0.1330539882183075,
				-0.1587093025445938
			],
			"type":"VEC3"
		},
		{
			"bufferView":5,
			"componentType":5126,
			"count":1616,
			"type":"VEC3"
		},
		{
			"bufferView":6,
			"componentType":5126,
			"count":1616,
			"type":"VEC2"
		},
		{
			"bufferView":7,
			"componentType":5123,
			"count":1968,
			"type":"SCALAR"
		},
		{
			"bufferView":8,
			"componentType":5126,
			"count":707,
			"max":[
				0.03520442917943001,
				0.22594021260738373,
				0.05987080931663513
			],
			"min":[
				-0.03300667554140091,
				-0.0045092045329511166,
				-0.22284410893917084
			],
			"type":"VEC3"
		},
		{
			"bufferView":9,
			"componentType":5126,
			"count":707,
			"type":"VEC3"
		},
		{
			"bufferView":10,
			"componentType":5126,
			"count":707,
			"type":"VEC2"
		},
		{
			"bufferView":11,
			"componentType":5123,
			"count":852,
			"type":"SCALAR"
		},
		{
			"bufferView":12,
			"componentType":5126,
			"count":1073,
			"max":[
				0.019095610827207565,
				0.031913816928863525,
				0.0035209485795348883
			],
			"min":[
				-0.02013976126909256,
				-0.22225062549114227,
				-0.19652901589870453
			],
			"type":"VEC3"
		},
		{
			"bufferView":13,
			"componentType":5126,
			"count":1073,
			"type":"VEC3"
		},
		{
			"bufferView":14,
			"componentType":5126,
			"count":1073,
			"type":"VEC2"
		},
		{
			"bufferView":15,
			"componentType":5123,
			"count":1200,
			"type":"SCALAR"
		}
	],
	"bufferViews":[
		{
			"buffer":0,
			"byteLength":100572,
			"byteOffset":0,
			"target":34962
		},
		{
			"buffer":0,
			"byteLength":100572,
			"byteOffset":100572,
			"target":34962
		},
		{
			"buffer":0,
			"byteLength":67048,
			"byteOffset":201144,
			"target":34962
		},
		{
			"buffer":0,
			"byteLength":17610,
			"byteOffset":268192,
			"target":34963
		},
		{
			"buffer":0,
			"byteLength":19392,
			"byteOffset":285804,
			"target":34962
		},
		{
			"buffer":0,
			"byteLength":19392,
			"byteOffset":305196,
			"target":34962
		},
		{
			"buffer":0,
			"byteLength":12928,
			"byteOffset":324588,
			"target":34962
		},
		{
			"buffer":0,
			"byteLength":3936,
			"byteOffset":337516,
			"target":34963
		},
		{
			"buffer":0,
			"byteLength":8484,
			"byteOffset":341452,
			"target":34962
		},
		{
			"buffer":0,
			"byteLength":8484,
			"byteOffset":349936,
			"target":34962
		},
		{
			"buffer":0,
			"byteLength":5656,
			"byteOffset":358420,
			"target":34962
		},
		{
			"buffer":0,
			"byteLength":1704,
			"byteOffset":364076,
			"target":34963
		},
		{
			"buffer":0,
			"byteLength":12876,
			"byteOffset":365780,
			"target":34962
		},
		{
			"buffer":0,
			"byteLength":12876,
			"byteOffset":378656,
			"target":34962
		},
		{
			"buffer":0,
			"byteLength":8584,
			"byteOffset":391532,
			"target":34962
		},
		{
			"buffer":0,
			"byteLength":2400,
			"byteOffset":400116,
			"target":34963
		}
	],
	"buffers":[
		{
			"byteLength":402516,
			"uri":"revolver.bin"
		}
	]
}
