{
	"asset":{
		"generator":"Khronos glTF Blender I/O v4.5.47",
		"version":"2.0"
	},
	"extensionsUsed":[
		"KHR_materials_specular",
		"KHR_materials_ior"
	],
	"scene":0,
	"scenes":[
		{
			"name":"Scene",
			"nodes":[
				0,
				1,
				2
			]
		}
	],
	"nodes":[
		{
			"mesh":0,
			"name":"Bulb"
		},
		{
			"mesh":1,
			"name":"Top",
			"translation":[
				-0.0012941689928993583,
				0.12816305458545685,
				-8.404503751080483e-05
			]
		},
		{
			"mesh":2,
			"name":"Base",
			"translation":[
				-0.0009570284164510667,
				0.11389309912919998,
				-0.0001973721373360604
			]
		}
	],
	"materials":[
		{
			"alphaMode":"MASK",
			"doubleSided":true,
			"extensions":{
				"KHR_materials_specular":{
					"specularFactor":0
				},
				"KHR_materials_ior":{
					"ior":1.3799999952316284
				}
			},
			"name":"Glass Solid Simple",
			"pbrMetallicRoughness":{
				"baseColorFactor":[
					0.5,
					0.5,
					0.5,
					0
				],
				"metallicFactor":0,
				"roughnessFactor":0.009999990463256836
			}
		},
		{
			"doubleSided":true,
			"extensions":{
				"KHR_materials_specular":{
					"specularFactor":0
				},
				"KHR_materials_ior":{
					"ior":999
				}
			},
			"name":"brushed metall 01",
			"pbrMetallicRoughness":{
				"baseColorFactor":[
					0,
					0,
					0,
					1
				],
				"metallicFactor":0,
				"roughnessFactor":0.3999999761581421
			}
		},
		{
			"doubleSided":true,
			"extensions":{
				"KHR_materials_specular":{
					"specularFactor":0
				},
				"KHR_materials_ior":{
					"ior":999
				}
			},
			"name":"brushed metall 02",
			"pbrMetallicRoughness":{
				"baseColorFactor":[
					0,
					0,
					0,
					1
				],
				"metallicFactor":0,
				"roughnessFactor":0.3999999761581421
			}
		},
		{
			"doubleSided":true,
			"extensions":{
				"KHR_materials_specular":{
					"specularFactor":0
				},
				"KHR_materials_ior":{
					"ior":999
				}
			},
			"name":"clean metall",
			"pbrMetallicRoughness":{
				"baseColorFactor":[
					0,
					0,
					0,
					1
				],
				"metallicFactor":0,
				"roughnessFactor":0.19999998807907104
			}
		},
		{
			"doubleSided":true,
			"extensions":{
				"KHR_materials_specular":{
					"specularColorFactor":[
						1.5686275959014893,
						1.5686275959014893,
						1.5686275959014893
					]
				},
				"KHR_materials_ior":{
					"ior":1.5199999809265137
				}
			},
			"name":"white plastic",
			"pbrMetallicRoughness":{
				"baseColorFactor":[
					0.7058823704719543,
					0.7058823704719543,
					0.7058823704719543,
					1
				],
				"metallicFactor":0,
				"roughnessFactor":0.25
			}
		}
	],
	"meshes":[
		{
			"name":"Line083",
			"primitives":[
				{
					"attributes":{
						"POSITION":0,
						"NORMAL":1
					},
					"indices":2,
					"material":0
				}
			]
		},
		{
			"name":"Line001",
			"primitives":[
				{
					"attributes":{
						"POSITION":3,
						"NORMAL":4,
						"TEXCOORD_0":5
					},
					"indices":6,
					"material":1
				},
				{
					"attributes":{
						"POSITION":7,
						"NORMAL":8,
						"TEXCOORD_0":9
					},
					"indices":10,
					"material":2
				},
				{
					"attributes":{
						"POSITION":11,
						"NORMAL":12,
						"TEXCOORD_0":13
					},
					"indices":14,
					"material":3
				}
			]
		},
		{
			"name":"Cylinder001",
			"primitives":[
				{
					"attributes":{
						"POSITION":15,
						"NORMAL":16,
						"TEXCOORD_0":17
					},
					"indices":18,
					"material":4
				}
			]
		}
	],
	"accessors":[
		{
			"bufferView":0,
			"componentType":5126,
			"count":2462,
			"max":[
				0.023221002891659737,
				0.08951321244239807,
				0.024070413783192635
			],
			"min":[
				-0.025135086849331856,
				0.028149425983428955,
				-0.02428567409515381
			],
			"type":"VEC3"
		},
		{
			"bufferView":1,
			"componentType":5126,
			"count":2462,
			"type":"VEC3"
		},
		{
			"bufferView":2,
			"componentType":5123,
			"count":3648,
			"type":"SCALAR"
		},
		{
			"bufferView":3,
			"componentType":5126,
			"count":256,
			"max":[
				0.03714606165885925,
				0.25328218936920166,
				0.036785367876291275
			],
			"min":[
				-0.03647182509303093,
				0.22429989278316498,
				-0.03683251515030861
			],
			"type":"VEC3"
		},
		{
			"bufferView":4,
			"componentType":5126,
			"count":256,
			"type":"VEC3"
		},
		{
			"bufferView":5,
			"componentType":5126,
			"count":256,
			"type":"VEC2"
		},
		{
			"bufferView":6,
			"componentType":5123,
			"count":1536,
			"type":"SCALAR"
		},
		{
			"bufferView":7,
			"componentType":5126,
			"count":304,
			"max":[
				0.027819132432341576,
				0.22475068271160126,
				0.027458438649773598
			],
			"min":[
				-0.0271448977291584,
				0.20504547655582428,
				-0.027505582198500633
			],
			"type":"VEC3"
		},
		{
			"bufferView":8,
			"componentType":5126,
			"count":304,
			"type":"VEC3"
		},
		{
			"bufferView":9,
			"componentType":5126,
			"count":304,
			"type":"VEC2"
		},
		{
			"bufferView":10,
			"componentType":5123,
			"count":1824,
			"type":"SCALAR"
		},
		{
			"bufferView":11,
			"componentType":5126,
			"count":2932,
			"max":[
				0.01138304453343153,
				-0.021990429610013962,
				0.011160360649228096
			],
			"min":[
				-0.010877295397222042,
				-0.08921496570110321,
				-0.011100011877715588
			],
			"type":"VEC3"
		},
		{
			"bufferView":12,
			"componentType":5126,
			"count":2932,
			"type":"VEC3"
		},
		{
			"bufferView":13,
			"componentType":5126,
			"count":2932,
			"type":"VEC2"
		},
		{
			"bufferView":14,
			"componentType":5123,
			"count":16992,
			"type":"SCALAR"
		},
		{
			"bufferView":15,
			"componentType":5126,
			"count":2238,
			"max":[
				0.09203090518712997,
				0.21973997354507446,
				0.09212065488100052
			],
			"min":[
				-0.09203094989061356,
				-0.11395502835512161,
				-0.09194117784500122
			],
			"type":"VEC3"
		},
		{
			"bufferView":16,
			"componentType":5126,
			"count":2238,
			"type":"VEC3"
		},
		{
			"bufferView":17,
			"componentType":5126,
			"count":2238,
			"type":"VEC2"
		},
		{
			"bufferView":18,
			"componentType":5123,
			"count":6120,
			"type":"SCALAR"
		}
	],
	"bufferViews":[
		{
			"buffer":0,
			"byteLength":29544,
			"byteOffset":0,
			"target":34962
		},
		{
			"buffer":0,
			"byteLength":29544,
			"byteOffset":29544,
			"target":34962
		},
		{
			"buffer":0,
			"byteLength":7296,
			"byteOffset":59088,
			"target":34963
		},
		{
			"buffer":0,
			"byteLength":3072,
			"byteOffset":66384,
			"target":34962
		},
		{
			"buffer":0,
			"byteLength":3072,
			"byteOffset":69456,
			"target":34962
		},
		{
			"buffer":0,
			"byteLength":2048,
			"byteOffset":72528,
			"target":34962
		},
		{
			"buffer":0,
			"byteLength":3072,
			"byteOffset":74576,
			"target":34963
		},
		{
			"buffer":0,
			"byteLength":3648,
			"byteOffset":77648,
			"target":34962
		},
		{
			"buffer":0,
			"byteLength":3648,
			"byteOffset":81296,
			"target":34962
		},
		{
			"buffer":0,
			"byteLength":2432,
			"byteOffset":84944,
			"target":34962
		},
		{
			"buffer":0,
			"byteLength":3648,
			"byteOffset":87376,
			"target":34963
		},
		{
			"buffer":0,
			"byteLength":35184,
			"byteOffset":91024,
			"target":34962
		},
		{
			"buffer":0,
			"byteLength":35184,
			"byteOffset":126208,
			"target":34962
		},
		{
			"buffer":0,
			"byteLength":23456,
			"byteOffset":161392,
			"target":34962
		},
		{
			"buffer":0,
			"byteLength":33984,
			"byteOffset":184848,
			"target":34963
		},
		{
			"buffer":0,
			"byteLength":26856,
			"byteOffset":218832,
			"target":34962
		},
		{
			"buffer":0,
			"byteLength":26856,
			"byteOffset":245688,
			"target":34962
		},
		{
			"buffer":0,
			"byteLength":17904,
			"byteOffset":272544,
			"target":34962
		},
		{
			"buffer":0,
			"byteLength":12240,
			"byteOffset":290448,
			"target":34963
		}
	],
	"buffers":[
		{
			"byteLength":302688,
			"uri":"lamps_01.bin"
		}
	]
}
